<?xml version="1.0" standalone="no"?>
<!DOCTYPE svg PUBLIC "-//W3C//DTD SVG 20010904//EN"
 "http://www.w3.org/TR/2001/REC-SVG-20010904/DTD/svg10.dtd">
<svg version="1.0" xmlns="http://www.w3.org/2000/svg"
 width="500.000000pt" height="500.000000pt" viewBox="0 0 500.000000 500.000000"
 preserveAspectRatio="xMidYMid meet">
<metadata>
Created by potrace 1.11, written by Peter Selinger 2001-2013
</metadata>
<g transform="translate(0.000000,500.000000) scale(0.100000,-0.100000)"
fill="#000000" stroke="none">
<path d="M2568 4044 c-1 -31 -1 -59 2 -62 6 -8 4 -8 95 -16 39 -4 86 -10 105
-14 60 -13 63 -11 76 50 l11 56 -56 11 c-31 6 -85 13 -121 16 -36 3 -75 8 -87
10 -19 5 -21 0 -25 -51z"/>
<path d="M2175 4064 c-77 -16 -175 -46 -175 -52 0 -3 7 -29 16 -57 l17 -52 81
22 c45 12 105 26 133 30 33 4 50 11 48 18 -4 10 -10 55 -14 100 -1 10 -34 7
-106 -9z"/>
<path d="M3111 3915 c-12 -25 -21 -48 -21 -53 0 -4 30 -23 68 -41 37 -18 88
-46 113 -62 25 -16 48 -29 51 -29 3 0 19 22 36 49 l30 49 -56 35 c-66 40 -177
97 -191 97 -5 0 -18 -20 -30 -45z"/>
<path d="M1635 3840 c-50 -32 -102 -69 -118 -82 l-27 -23 30 -35 c16 -19 30
-38 30 -42 0 -15 23 -8 54 15 52 40 129 91 158 106 l28 14 -26 46 c-15 25 -30
49 -33 53 -4 4 -47 -19 -96 -52z"/>
<path d="M2410 3632 c-451 -37 -847 -350 -989 -783 -78 -235 -70 -521 19 -754
126 -326 392 -573 730 -680 282 -89 617 -54 876 90 204 114 385 308 484 518
18 37 33 73 34 80 2 7 6 19 9 27 49 121 75 383 52 528 -37 245 -154 475 -329
647 -205 203 -474 320 -756 327 -52 2 -111 2 -130 0z"/>
<path d="M3572 3598 l-42 -42 32 -30 c17 -17 56 -61 86 -98 30 -38 57 -68 60
-68 5 0 25 13 91 57 5 4 -41 71 -74 108 -15 17 -37 41 -49 55 -57 64 -58 65
-104 18z"/>
<path d="M1236 3475 c-41 -51 -116 -165 -116 -178 0 -3 21 -17 47 -33 45 -26
47 -27 60 -8 8 10 43 59 79 108 72 98 72 98 2 147 l-27 19 -45 -55z"/>
<path d="M3893 3147 c-43 -21 -56 -50 -34 -72 5 -6 24 -54 42 -108 31 -96 33
-99 58 -92 14 3 39 9 55 12 26 5 28 8 22 44 -8 50 -78 232 -91 235 -5 1 -29
-7 -52 -19z"/>
<path d="M981 2998 c-10 -31 -42 -159 -55 -220 -6 -28 -12 -25 84 -44 31 -6
33 -3 44 66 6 40 26 112 41 152 l14 37 -55 20 c-30 12 -56 21 -59 21 -2 0 -8
-15 -14 -32z"/>
<path d="M3995 2603 c-19 -4 -20 -12 -21 -138 -2 -131 -1 -135 20 -136 11 0
38 -2 59 -5 l37 -5 1 43 c1 24 2 88 3 143 l1 100 -40 1 c-22 0 -49 -1 -60 -3z"/>
<path d="M949 2462 l-46 -3 3 -47 c6 -97 19 -200 28 -228 3 -8 20 -8 61 -1
l57 11 -6 45 c-3 25 -8 57 -11 71 -3 14 -6 51 -7 83 -3 67 -10 74 -79 69z"/>
<path d="M3896 2017 c-10 -29 -33 -84 -51 -124 l-33 -71 48 -26 c26 -14 51
-26 54 -26 10 0 61 111 90 195 l24 69 -35 12 c-79 27 -77 28 -97 -29z"/>
<path d="M1072 1915 l-53 -24 21 -43 c23 -48 24 -49 70 -133 18 -33 36 -64 41
-69 7 -8 99 42 99 55 0 6 -120 239 -123 238 -1 0 -26 -11 -55 -24z"/>
<path d="M3578 1495 c-49 -53 -88 -99 -88 -103 0 -4 17 -24 38 -45 l37 -36 50
47 c76 72 145 157 137 168 -8 11 -76 64 -83 64 -2 0 -43 -43 -91 -95z"/>
<path d="M1381 1450 l-43 -39 23 -28 c30 -36 161 -151 181 -158 10 -4 24 5 39
27 13 18 27 35 31 36 15 7 8 22 -24 49 -18 16 -62 56 -98 90 l-66 62 -43 -39z"/>
<path d="M3140 1173 c-77 -39 -104 -58 -103 -71 3 -26 32 -92 41 -92 4 0 63
27 130 60 l123 61 -28 49 c-16 29 -34 49 -43 48 -8 -1 -62 -25 -120 -55z"/>
<path d="M1828 1116 l-27 -54 85 -36 c78 -32 154 -58 179 -60 9 -1 17 21 36
93 3 10 -23 24 -87 47 -51 18 -105 39 -122 48 -17 9 -33 16 -34 16 -2 0 -16
-24 -30 -54z"/>
<path d="M2710 1038 c-25 -5 -111 -10 -192 -11 -140 -2 -148 -3 -149 -22 -1
-11 -3 -36 -5 -56 -2 -28 1 -38 14 -41 51 -14 391 7 407 24 6 6 -17 118 -23
117 -4 -1 -27 -5 -52 -11z"/>
</g>
</svg>
