<?xml version="1.0" standalone="no"?>
<!DOCTYPE svg PUBLIC "-//W3C//DTD SVG 20010904//EN"
 "http://www.w3.org/TR/2001/REC-SVG-20010904/DTD/svg10.dtd">
<svg version="1.0" xmlns="http://www.w3.org/2000/svg"
 width="500.000000pt" height="500.000000pt" viewBox="0 0 500.000000 500.000000"
 preserveAspectRatio="xMidYMid meet">
<metadata>
Created by potrace 1.11, written by Peter Selinger 2001-2013
</metadata>
<g transform="translate(0.000000,500.000000) scale(0.100000,-0.100000)"
fill="#000000" stroke="none">
<path d="M2255 4313 c-93 -12 -240 -44 -287 -62 -28 -11 -29 -5 7 -108 3 -8
30 -4 95 12 83 22 160 35 295 51 62 7 61 7 59 41 -1 15 -3 40 -3 55 -1 32 -7
32 -166 11z"/>
<path d="M2890 4233 c-7 -30 -8 -59 -3 -63 4 -4 31 -13 58 -19 69 -17 207 -68
287 -106 l67 -33 28 54 c15 29 25 55 23 57 -3 2 -52 24 -110 50 -112 48 -162
66 -271 97 l-68 18 -11 -55z"/>
<path d="M1429 3984 c-64 -47 -175 -140 -213 -180 -12 -12 -34 -36 -51 -53
l-30 -32 40 -35 c22 -19 44 -34 50 -34 6 0 42 32 80 71 39 39 113 104 166 144
l97 72 -29 47 c-16 25 -33 46 -38 46 -5 0 -37 -21 -72 -46z"/>
<path d="M3705 3791 l-38 -40 62 -63 c35 -35 96 -108 137 -163 41 -55 79 -106
85 -112 7 -10 21 -5 58 19 l49 32 -39 57 c-75 112 -247 309 -269 309 -3 0 -23
-18 -45 -39z"/>
<path d="M2350 3719 c-30 -4 -71 -10 -91 -13 -68 -10 -253 -76 -329 -117 -156
-85 -326 -232 -427 -370 -105 -146 -192 -353 -218 -524 -11 -69 -14 -298 -5
-350 5 -27 12 -68 15 -90 11 -66 72 -240 111 -316 120 -232 322 -429 557 -542
91 -45 220 -90 287 -101 19 -3 49 -9 65 -12 61 -13 301 -11 380 2 265 46 504
172 687 363 331 343 433 831 268 1282 -137 375 -499 692 -880 768 -30 6 -68
13 -85 17 -49 9 -275 12 -335 3z"/>
<path d="M847 3287 c-51 -102 -121 -305 -133 -389 l-6 -36 52 -11 c28 -6 55
-9 60 -6 4 3 11 22 15 42 13 71 87 286 121 351 15 29 11 33 -57 64 l-36 16
-16 -31z"/>
<path d="M4222 3009 c-13 -5 -35 -11 -49 -13 -14 -3 -27 -7 -29 -9 -2 -2 3
-26 10 -53 20 -67 44 -212 52 -309 3 -44 7 -82 9 -85 2 -3 28 -3 59 -2 l57 4
-5 76 c-9 147 -51 372 -73 393 -5 4 -18 3 -31 -2z"/>
<path d="M710 2380 c-26 -4 -35 -10 -33 -23 8 -107 15 -153 28 -217 9 -41 18
-84 20 -94 3 -11 14 -47 25 -82 l21 -62 51 19 c28 10 52 20 55 22 2 3 -8 43
-21 91 -25 84 -50 214 -60 306 -3 25 -5 45 -5 46 -3 2 -53 -2 -81 -6z"/>
<path d="M4155 2071 c-3 -11 -7 -28 -10 -38 -11 -57 -92 -261 -124 -314 -12
-19 -21 -39 -21 -45 0 -6 22 -23 50 -38 l49 -27 23 43 c44 83 81 174 118 288
l38 115 -40 12 c-23 7 -49 15 -59 18 -12 4 -19 -1 -24 -14z"/>
<path d="M1050 1513 c-19 -13 -41 -28 -49 -33 -13 -7 -13 -11 1 -32 38 -57
125 -160 210 -245 l92 -93 29 28 c58 54 57 55 -42 155 -50 51 -117 126 -149
168 l-58 76 -34 -24z"/>
<path d="M3675 1259 c-49 -49 -182 -153 -253 -199 -56 -36 -57 -37 -18 -99
l26 -40 72 48 c89 58 185 135 255 202 l53 51 -43 39 c-23 21 -44 38 -47 38 -3
0 -23 -18 -45 -40z"/>
<path d="M1741 899 c-12 -28 -20 -53 -19 -55 8 -8 156 -67 212 -86 66 -21 214
-58 233 -58 10 0 27 64 28 104 0 9 -32 21 -85 31 -54 10 -161 44 -247 79 -50
20 -92 36 -95 36 -2 0 -14 -23 -27 -51z"/>
<path d="M2910 839 c-151 -30 -216 -39 -306 -45 l-104 -7 0 -60 0 -59 108 6
c59 3 121 8 137 11 17 3 46 8 65 11 19 3 65 12 102 20 73 17 74 18 46 95 -12
33 -15 34 -48 28z"/>
</g>
</svg>
